<mxfile host="app.diagrams.net" agent="Mozilla/5.0 (Windows NT 10.0; Win64; x64) AppleWebKit/537.36 (KHTML, like Gecko) Chrome/131.0.0.0 Safari/537.36" version="24.9.0">
  <diagram name="Page-0" id="Page-0">
    <mxGraphModel dx="1050" dy="522" grid="1" gridSize="10" guides="1" tooltips="1" connect="1" arrows="1" fold="1" page="1" pageScale="1" pageWidth="606.42" pageHeight="668.87" math="0" shadow="0">
      <root>
        <mxCell id="0" />
        <mxCell id="1" parent="0" />
        <mxCell id="2" style="vsdxID=1;fillColor=none;gradientColor=none;image;aspect=fixed;image=data:image/png,/9j/4AAQSkZJRgABAQAAAQABAAD/2wBDAAgGBgcGBQgHBwcJCQgKDBQNDAsLDBkSEw8UHRofHh0aHBwgJC4nICIsIxwcKDcpLDAxNDQ0Hyc5PTgyPC4zNDL/2wBDAQkJCQwLDBgNDRgyIRwhMjIyMjIyMjIyMjIyMjIyMjIyMjIyMjIyMjIyMjIyMjIyMjIyMjIyMjIyMjIyMjIyMjL/wAARCAJ4Aj0DASIAAhEBAxEB/8QAHwAAAQUBAQEBAQEAAAAAAAAAAAECAwQFBgcICQoL/8QAtRAAAgEDAwIEAwUFBAQAAAF9AQIDAAQRBRIhMUEGE1FhByJxFDKBkaEII0KxwRVS0fAkM2JyggkKFhcYGRolJicoKSo0NTY3ODk6Q0RFRkdISUpTVFVWV1hZWmNkZWZnaGlqc3R1dnd4eXqDhIWGh4iJipKTlJWWl5iZmqKjpKWmp6ipqrKztLW2t7i5usLDxMXGx8jJytLT1NXW19jZ2uHi4+Tl5ufo6erx8vP09fb3+Pn6/8QAHwEAAwEBAQEBAQEBAQAAAAAAAAECAwQFBgcICQoL/8QAtREAAgECBAQDBAcFBAQAAQJ3AAECAxEEBSExBhJBUQdhcRMiMoEIFEKRobHBCSMzUvAVYnLRChYkNOEl8RcYGRomJygpKjU2Nzg5OkNERUZHSElKU1RVVldYWVpjZGVmZ2hpanN0dXZ3eHl6goOEhYaHiImKkpOUlZaXmJmaoqOkpaanqKmqsrO0tba3uLm6wsPExcbHyMnK0tPU1dbX2Nna4uPk5ebn6Onq8vP09fb3+Pn6/9oADAMBAAIRAxEAPwD0LwX4L8LXfgbQLi48OaTLPLp0DySSWcbM7GNSSSRySa3P+ED8If8AQr6N/wCAMf8AhR4D/wCSe+HP+wZb/wDota6GgDnv+ED8If8AQr6N/wCAMf8AhR/wgfhD/oV9G/8AAGP/AAroaKAOe/4QPwh/0K+jf+AMf+FH/CB+EP8AoV9G/wDAGP8AwroaKAOe/wCED8If9Cvo3/gDH/hR/wAIH4Q/6FfRv/AGP/CuhooA57/hA/CH/Qr6N/4Ax/4Uf8IH4Q/6FfRv/AGP/CuhooA57/hA/CH/AEK+jf8AgDH/AIUf8IH4Q/6FfRv/AABj/wAK6GigDnv+ED8If9Cvo3/gDH/hR/wgfhD/AKFfRv8AwBj/AMK6GigDnv8AhA/CH/Qr6N/4Ax/4Uf8ACB+EP+hX0b/wBj/wroaKAOe/4QPwh/0K+jf+AMf+FH/CB+EP+hX0b/wBj/wroaKAOe/4QPwh/wBCvo3/AIAx/wCFH/CB+EP+hX0b/wAAY/8ACuhooA57/hA/CH/Qr6N/4Ax/4Uf8IH4Q/wChX0b/AMAY/wDCuhooA57/AIQPwh/0K+jf+AMf+FH/AAgfhD/oV9G/8AY/8K6GigDnv+ED8If9Cvo3/gDH/hR/wgfhD/oV9G/8AY/8K6GigDnv+ED8If8AQr6N/wCAMf8AhR/wgfhD/oV9G/8AAGP/AAroaKAOe/4QPwh/0K+jf+AMf+FH/CB+EP8AoV9G/wDAGP8AwroaKAOe/wCED8If9Cvo3/gDH/hR/wAIH4Q/6FfRv/AGP/CuhooA57/hA/CH/Qr6N/4Ax/4Uf8IH4Q/6FfRv/AGP/CuhooA57/hA/CH/AEK+jf8AgDH/AIVz/gjwZ4Xu/B9hPc+HNJmmbzNzyWcbMcSMOSRXoNc18P8A/kR9O+kn/oxqAJP+ED8If9Cvo3/gDH/hR/wgfhD/AKFfRv8AwBj/AMK6GigDnv8AhA/CH/Qr6N/4Ax/4Uf8ACB+EP+hX0b/wBj/wroaKAOe/4QPwh/0K+jf+AMf+FH/CB+EP+hX0b/wBj/wroaKAOe/4QPwh/wBCvo3/AIAx/wCFH/CB+EP+hX0b/wAAY/8ACuhooA57/hA/CH/Qr6N/4Ax/4Uf8IH4Q/wChX0b/AMAY/wDCuhooA57/AIQPwh/0K+jf+AMf+FH/AAgfhD/oV9G/8AY/8K6GigDnv+ED8If9Cvo3/gDH/hR/wgfhD/oV9G/8AY/8K6GigDnv+ED8If8AQr6N/wCAMf8AhR/wgfhD/oV9G/8AAGP/AAroaKAOe/4QPwh/0K+jf+AMf+FH/CB+EP8AoV9G/wDAGP8AwroaKAOe/wCED8If9Cvo3/gDH/hR/wAIH4Q/6FfRv/AGP/CuhooA57/hA/CH/Qr6N/4Ax/4Uf8IH4Q/6FfRv/AGP/CuhooA57/hA/CH/AEK+jf8AgDH/AIUf8IH4Q/6FfRv/AABj/wAK6GigDnv+ED8If9Cvo3/gDH/hR/wgfhD/AKFfRv8AwBj/AMK6GigDnv8AhA/CH/Qr6N/4Ax/4Uf8ACB+EP+hX0b/wBj/wroaKAOe/4QPwh/0K+jf+AMf+FH/CB+EP+hX0b/wBj/wroaKAOe/4QPwh/wBCvo3/AIAx/wCFH/CB+EP+hX0b/wAAY/8ACuhooA57/hA/CH/Qr6N/4Ax/4Uf8IH4Q/wChX0b/AMAY/wDCuhooA57/AIQPwh/0K+jf+AMf+FZ2k6Tp2jeNNZt9LsLaygaxs3aO2iWNS2+4GcAdeB+VdlXMR/8AI+av/wBg+y/9DuaAJvAf/JPfDn/YMt//AEWtdDXPeA/+Se+HP+wZb/8Aota6GgAooooAKKKKACiiigAooooAKKKKACqmpahFpenTXsyuyRLnagyzHoAPckgVbqhrOmjVtJnsvM8tpACj7d21gQVOO/IFAGdba9fw3sEGtaZFZJdA/Z5IbjzRkDO1/lXa2PTI4PNXH1/TRbrKLtVWS3NwjFG5TpnH1I46msT+zPFGo6vaS6qumJY2zEqkEzly+0rvyVAxyfk9/vVTj8M+I/sYiNxZQSW9k1pC0Mrgv84O4nblMgY4yR1BNAGjpXi+AaKtxq9wouhOYGSC0mRixyygRMu8Erz0+lara9ay+HJtas8zwJE8gUgoTtzlSCMqeMciue0nwlqFrdpcTtEB9ujuijXUtwygRFCPMkGWOTx0rXTRLlfDOpaaXi865aco2TtG8kjPHvQBPDrSXFxA6zQpbMfJdCrGTzyMhR2Axk571sVythpsx8Ws+JBa2tum8NGVV7jaFypP3gFA5Hc11VABRRRQAUUUUAFFFFABRRRQAUUUUAFFFFABRRRQAVzXw/8A+RH076Sf+jGrpa5r4f8A/Ij6d9JP/RjUAdLRRRQAUUUUAFFFFABRRRQAUUUUAFFFFABWdrGqjSYbWQxeYJ7mO3+9t27zjP4Vo1i+JdE/t+wt7R44JIVuopZY5xlXRTkjGDmgAvPEEVpdXsLBFW2t1lEpYkMzEgLgAnqO2SaNF1o32gvfTsjzQ7xMsMUiEMvYo43KfYisPUfAVqftw0u1tLKCVIXWO3Bh3SRsW5KAEZ6ZHIrU8L6PLYaRc+dGsMt3I0hUXE05GRgbnl+Ynj0H0oAp23xA06SO0luYZ7eK4tTcZMUjMmHCnK7chefvHAqXUNchPi3TbVL5FgX/AFijzNrO4+QF1GwHHIVjzmobPw1qK2u24+yrKNNeyGx2YEl8g5KjjHX+tRnwxqqyfY0e0OnzzQ3E8rO3moyKoKquMEEqOcjGTwaANmz8V6NfXptILpjIFdgzQuqNsOGw5AUkdwDUul+I9M1md4bKaRpETzCrwvGShOAw3AZB7Edaxz4YnXTbOCaSNUgF0ZTFknEm7G0AZJ5FV/B0moX2pvdXVoYYbezS0RjDJHvIPXEiq3T2wOmTQB2tFFFABRRRQAUUUUAFFFFABRRRQAUUUUAFFFFABXMR/wDI+av/ANg+y/8AQ7munrmI/wDkfNX/AOwfZf8AodzQBJ4EljHw+8OAuuf7Mt+//TNa6DzY/wDnon/fQrh/BXg7wzdeBdAuLjw/pks0unQO8j2qFmYxqSSSOSa3P+EH8Kf9C3pP/gGn+FAG55sf/PRP++hR5sf/AD0T/voVh/8ACD+FP+hb0n/wDT/Cj/hB/Cn/AELek/8AgGn+FAG55sf/AD0T/voUebH/AM9E/wC+hWH/AMIP4U/6FvSf/ANP8KP+EH8Kf9C3pP8A4Bp/hQBuebH/AM9E/wC+hR5sf/PRP++hWH/wg/hT/oW9J/8AANP8KP8AhB/Cn/Qt6T/4Bp/hQBuebH/z0T/voUebH/z0T/voVh/8IP4U/wChb0n/AMA0/wAKP+EH8Kf9C3pP/gGn+FAG55sf/PRP++hR5sf/AD0T/voVh/8ACD+FP+hb0n/wDT/Cj/hB/Cn/AELek/8AgGn+FAG55sf/AD0T/voUebH/AM9E/wC+hWH/AMIP4U/6FvSf/ANP8KP+EH8Kf9C3pP8A4Bp/hQBuebH/AM9E/wC+hR5sf/PRP++hWH/wg/hT/oW9J/8AANP8KP8AhB/Cn/Qt6T/4Bp/hQBuebH/z0T/voUebH/z0T/voVh/8IP4U/wChb0n/AMA0/wAKP+EH8Kf9C3pP/gGn+FAG55sf/PRP++hR5sf/AD0T/voVh/8ACD+FP+hb0n/wDT/Cj/hB/Cn/AELek/8AgGn+FAG55sf/AD0T/voUebH/AM9E/wC+hWH/AMIP4U/6FvSf/ANP8KP+EH8Kf9C3pP8A4Bp/hQBuebH/AM9E/wC+hR5sf/PRP++hWH/wg/hT/oW9J/8AANP8KP8AhB/Cn/Qt6T/4Bp/hQBuebH/z0T/voUebH/z0T/voVh/8IP4U/wChb0n/AMA0/wAKP+EH8Kf9C3pP/gGn+FAG55sf/PRP++hR5sf/AD0T/voVh/8ACD+FP+hb0n/wDT/Cj/hB/Cn/AELek/8AgGn+FAG55sf/AD0T/voUebH/AM9E/wC+hWH/AMIP4U/6FvSf/ANP8KP+EH8Kf9C3pP8A4Bp/hQBuebH/AM9E/wC+hR5sf/PRP++hWH/wg/hT/oW9J/8AANP8KP8AhB/Cn/Qt6T/4Bp/hQBuebH/z0T/voUebH/z0T/voVh/8IP4U/wChb0n/AMA0/wAKP+EH8Kf9C3pP/gGn+FAG55sf/PRP++hXNeAJIx4I04F1B/ed/wDpo1Wf+EH8Kf8AQt6T/wCAaf4Vz/gfwf4au/B1hPcaBpksreZud7VCT+8YdSKAO882P/non/fQo82P/non/fQrD/4Qfwp/0Lek/wDgGn+FH/CD+FP+hb0n/wAA0/woA3PNj/56J/30KPNj/wCeif8AfQrD/wCEH8Kf9C3pP/gGn+FH/CD+FP8AoW9J/wDANP8ACgDc82P/AJ6J/wB9CjzY/wDnon/fQrD/AOEH8Kf9C3pP/gGn+FH/AAg/hT/oW9J/8A0/woA3PNj/AOeif99CjzY/+eif99CsP/hB/Cn/AELek/8AgGn+FH/CD+FP+hb0n/wDT/CgDc82P/non/fQo82P/non/fQrD/4Qfwp/0Lek/wDgGn+FH/CD+FP+hb0n/wAA0/woA3PNj/56J/30KPNj/wCeif8AfQrD/wCEH8Kf9C3pP/gGn+FH/CD+FP8AoW9J/wDANP8ACgDc82P/AJ6J/wB9CjzY/wDnon/fQrD/AOEH8Kf9C3pP/gGn+FH/AAg/hT/oW9J/8A0/woA3PNj/AOeif99CjzY/+eif99CsP/hB/Cn/AELek/8AgGn+FH/CD+FP+hb0n/wDT/CgDc82P/non/fQo82P/non/fQrD/4Qfwp/0Lek/wDgGn+FH/CD+FP+hb0n/wAA0/woA3PNj/56J/30KPNj/wCeif8AfQrD/wCEH8Kf9C3pP/gGn+FH/CD+FP8AoW9J/wDANP8ACgDc82P/AJ6J/wB9CjzY/wDnon/fQrD/AOEH8Kf9C3pP/gGn+FH/AAg/hT/oW9J/8A0/woA3PNj/AOeif99CjzY/+eif99CsP/hB/Cn/AELek/8AgGn+FH/CD+FP+hb0n/wDT/CgDc82P/non/fQo82P/non/fQrD/4Qfwp/0Lek/wDgGn+FH/CD+FP+hb0n/wAA0/woA3PNj/56J/30KPNj/wCeif8AfQrD/wCEH8Kf9C3pP/gGn+FH/CD+FP8AoW9J/wDANP8ACgDc82P/AJ6J/wB9CjzY/wDnon/fQrD/AOEH8Kf9C3pP/gGn+FH/AAg/hT/oW9J/8A0/woA3PNj/AOeif99CjzY/+eif99CsP/hB/Cn/AELek/8AgGn+FH/CD+FP+hb0n/wDT/CgDc82P/non/fQo82P/non/fQrD/4Qfwp/0Lek/wDgGn+FH/CD+FP+hb0n/wAA0/woA3PNj/56J/30K5qJg3jvVypBH9n2XQ/7dzVn/hB/Cn/Qt6T/AOAaf4VmaVpen6R401m302yt7OFrGzcx28YRS2+4GcDvwKANHwH/AMk98Of9gy3/APRa10Nc94D/AOSe+HP+wZb/APota6GgAooooAKKKKACiiigAooooAKKKKACiiuV+Inio+DfBd7q0YU3IAitw3QyN0/Lk/hQBc8QeNfDnhbA1nVre1cjIjJLOR67VycfhVPQ/iR4Q8R3IttM1y3knJwscgaNmPsHAz+FfGd/f3eqX017fTyT3MzFnkkbJJNV0do3DoxVlOQQcEGgD7+ory/4I+N7nxZ4Yls9RlMt/pzCNpGOWkjI+Vj78EfhXqFABRRRQAUUUUAFFFFABRRRQAUUUUAFFFFABRRRQAUUUUAFc18P/wDkR9O+kn/oxq6Wua+H/wDyI+nfST/0Y1AHS0UUUAFFFFABRRRQAUUUUAFFFFABRRRQAUUUUAFFFFABRRRQAUUUUAFFFFABRRRQAUUUUAFFFFABRRRQAUUUUAFFFFABXMR/8j5q/wD2D7L/ANDua6euYj/5HzV/+wfZf+h3NAE3gP8A5J74c/7Blv8A+i1roa57wH/yT3w5/wBgy3/9FrXQ0AFFFFABRRRQAUUUUAFFFFABRRRQAV5t8c9IuNW+GlybZSzWk6XLKBklRkH/ANCz+Fek02SNJY2jkRXRwVZWGQQeoIoA+AqK+ivF/wCzxFfX0t54Zv4rQSNuNpcg7FP+ywyQPbFZmgfs4XpvFfX9Xt1tlIJjstzM49NzAY/I0AaP7NukXENjrWryKVguGjgjyPvFMkke3zYr3eqelaXZaLpkGnafbrBawLsjjXsP6n3q5QAUUUUAFFFFABRRRQAUUUUAFFFFABRRRQAUUUUAFFFFABXNfD//AJEfTvpJ/wCjGrpa5r4f/wDIj6d9JP8A0Y1AHS0UUUAFFFFABRRRQAUUUUAFFFFABRRRQAUUUUAFFFFABRRRQAUUUUAFFFFABRRRQAUUUUAFFFFABRRRQAUUUUAFFFFABXMR/wDI+av/ANg+y/8AQ7munrmI/wDkfNX/AOwfZf8AodzQBN4D/wCSe+HP+wZb/wDota6Gue8B/wDJPfDn/YMt/wD0WtdDQAUUUUAFFFFABRRRQAUUUUAFFFFABRRRQAVz3gWR5vAuiySuzu1qhZmOSTiuhrnPAP8AyIOh/wDXon8qAOjooooAKKKKACiiigAooooAKKKKACiiigAooooAKKKKACiiigArmvh//wAiPp30k/8ARjV0tc18P/8AkR9O+kn/AKMagDpaKKKACiiigAooooAKKKKACiiigAooooAKKKKACiiigAooooAKKKKACiiigAooooAKKKKACiiigAooooAKKKKACiiigArmI/8AkfNX/wCwfZf+h3NdPXMR/wDI+av/ANg+y/8AQ7mgCbwH/wAk98Of9gy3/wDRa10Nc94D/wCSe+HP+wZb/wDota6GgAooooAKKKKACiiigAooooAKKKKACiiigArnfAe0eA9E2klfsiYJGO1bMl/bRahDYSShbmdGkiQg/MFxuwenGR+dc54Gv7WDwf4bspJQLm4sg0UeCSwUDcfYDI6+tAHWUUUUAFFFFABRRRQAUUUUAFFFFABRRRQAUUUUAFFFFABRRRQAVzXw/wD+RH076Sf+jGrpa5r4f/8AIj6d9JP/AEY1AHS0UUUAFFFFABRRRQAUUUUAFFFFABRRRQAUUUUAFFFFABRRRQAUUUUAFFFFABRRRQAUUUUAFFFFABRRRQAUUUUAFFFFABXMR/8AI+av/wBg+y/9Dua6euYj/wCR81f/ALB9l/6Hc0ATeA/+Se+HP+wZb/8Aota6Gue8B/8AJPfDn/YMt/8A0WtdDQAUUUUAFFFFABRRWL4g1C6hNnpunMEv79yiSsMiFFGXkx3wMAD1YUAbDOinDMo+ppPNj/56J/30KwY/BHh8rm90+LUZzy09+PPdj65bOPoMCnf8IP4U/wChb0n/AMA0/wAKANzzY/8Anon/AH0KPNj/AOeif99CsP8A4Qfwp/0Lek/+Aaf4Uf8ACD+FP+hb0n/wDT/CgDc82P8A56J/30KPNj/56J/30Kw/+EH8Kf8AQt6T/wCAaf4Uf8IP4U/6FvSf/ANP8KAF8T2rXWnx3lkynUNPkFzbgHlyPvJ/wJcj64Pauc+F1rM/h+01bUYxBObVLW3hcjMcSZyfqzZP0x6V0X/CD+FP+hb0n/wDT/Cj/hB/Cn/Qt6T/AOAcf+FAG55sf/PRP++hR5sf/PRP++hWH/wg/hT/AKFvSf8AwDT/AAo/4Qfwp/0Lek/+Aaf4UAbnmx/89E/76FHmx/8APRP++hWH/wAIP4U/6FvSf/ANP8KP+EH8Kf8AQt6T/wCAaf4UAbnmx/8APRP++hSiRCcB1J9jWF/wg/hT/oW9J/8AANP8KRvA/hcqRHodjA3aS3iETr9GXBH4GgDoKK53Sbi60vWm0G9uHuYmi8+yuZDl2QHDRse7Lwc9wRnmuioAKKKKACiiigAooooAKKKKACiiigArmvh//wAiPp30k/8ARjV0tc18P/8AkR9O+kn/AKMagDpaKKKACiiigAooooAKKKKACiiigAppkQHBdQfc1z2rT3eq62ug2VxJbRJEJ724iOHCk4WNT/CW5OewHHNPXwP4XCgSaFYzt3kuIhK7fVmyT+JoA3fNj/56J/30KPNj/wCeif8AfQrD/wCEH8Kf9C3pP/gGn+FH/CD+FP8AoW9J/wDANP8ACgDc82P/AJ6J/wB9CjzY/wDnon/fQrD/AOEH8Kf9C3pP/gGn+FH/AAg/hT/oW9J/8A0/woA3PNj/AOeif99CjzY/+eif99CsP/hB/Cn/AELek/8AgGn+FH/CD+FP+hb0n/wDT/CgDc82P/non/fQo82P/non/fQrD/4Qfwp/0Lek/wDgGn+FH/CD+FP+hb0n/wAA0/woA3PNj/56J/30KPNj/wCeif8AfQrD/wCEH8Kf9C3pP/gGn+FH/CD+FP8AoW9J/wDANP8ACgDc82P/AJ6J/wB9CjzY/wDnon/fQrD/AOEH8Kf9C3pP/gGn+FH/AAg/hT/oW9J/8A0/woA3VdGOFZT9DTq56TwR4fC5stPi02ccpPYDyHU+uVxn6HIqfw/qF1P9s07USGv7CQJJIowJkYZSQDtkZBHqpoA2qKKKACiiigAooooAKKKKACuYj/5HzV/+wfZf+h3NdPXMR/8AI+av/wBg+y/9DuaAJvAf/JPfDn/YMt//AEWtdDXPeA/+Se+HP+wZb/8Aota6GgAooooAKKKKACud1D/kf9C/68L3/wBCt66Kud1D/kf9C/68L3/0K3oA6Ko4biG5QvBKkqBiu5GBGQcEce9ZPiy+g0/w1dyXFxHAkiiESSPtVS525J9s5rA0TXlsvDGm2+jxW+oyPdNZK0dxti3KGO7cAcKcZwBxmgDuaKxbLxAsvhqTV7y3NuYFk8+JX37WQkMAeM8jg8Vl3uua/GNOxpsMMtxdBERbkOkqFGI3NtyuCBnAPtmgDrqK5T/hLL6e2tFs9JSW/kErTQPc7VjEZ2thtp3EnpwM98VCfG1xK32i00oS6fGYPOmefY6iXGNqbTkgnnkUAdjRXP67qOp2mtaTBZLCbafzvPLvg/KuRgbTn8xWLZeNrq20IXOs2nlBrEXMc6yjL8hTvGAEOSD3GKAO6orz/QvFzjTxa2ipqV4b0W4YaiJ4suhcHzQmcDGCNvHvW1o3ie91G+tYLrS0to7lZQjrceYd8ZAcEbR8vPBzk9wKAOmormNT8UXtjqlzDDpaTWlo8K3E5uNrASYA2rtOSM8gkVBpfiTUTqHkXdoslpLfT20VwJAHDKSVGzGNuBjOc57UAddRXnVl4wa21PWJiY7qTy/OFrDqSz+Xhwm0qFxE2COASD9ea63Q9Wu9Qlvba/sY7S6tXUMsc3mqwZQwIO1T0PIxQBT1b/kfPDf/AF73v8oq6Sub1b/kfPDf/Xve/wAoq6SgAooooAKKKKACiiigAooooAKKKKACua+H/wDyI+nfST/0Y1dLXNfD/wD5EfTvpJ/6MagDpaKKKACiiigAooooAKKKKACimtIiMqs6qznCgnBP0p1AHN6R/wAj34l/642f/oMldJXN6R/yPfiX/rjZ/wDoMlXPFN9PpnhfUL21fy5oYi6MF3YP070AbFV5r+ztrqC1nuoY7i4JEMTuA0mOu0d65V/Fwu7+CKz+3RoLSaaUT2UkG4quRtMiDnPpmsqTxdYzeKdMeSdd8HlwNG14iy75VB3CLb8y8jLZHsKAPR6K5jSPFF5qGoWsU+lpb2l35ywSi43uWjJB3LtGAQCQcmqOsa7rdnrOpQwpEbaFrQQhXBdi7EMCCvGfXJxigDtaK5my8RXN3qNpaXVqba4F1LbzRxTB4yVj3AglQSMEf3eaqajrmq2Him93KHsYIIlgt0lUedLIxC7spkc9w3HoaAOxorlE8Vag1xb2B0iIai1y1vNH9pPloAm/cH2ZYEf7I5qBfGGrTeWYNChZJxN5Be825MTENu+Q4BA4xnnrjrQB2VFc1rOt358JWuqaVFGJp2hYJM+0KrkZGdp9cdKq2nibUodSuY72zV7Eag9qJxIAyHYrABNvzL1GSQfagDr6K830zx5b/adUvI5Ptm+3N1Dbx36ylVUgbWTaPKbkcc9881tjxXqcV6YLrRoo44riKGaRLvdgS/cKjYMn1BxjsTQB1tc7p3/I/a//ANeVl/6FPXRVzunf8j9r/wD15WX/AKFPQB0VFFFABRRRQAUUUUAFFFFABXMR/wDI+av/ANg+y/8AQ7munrmI/wDkfNX/AOwfZf8AodzQBN4D/wCSe+HP+wZb/wDota6Gue8B/wDJPfDn/YMt/wD0WtdDQAUUUUAFFFFABXO6h/yP+hf9eF7/AOhW9dFXO6h/yP8AoX/Xhe/+hW9AGre6ZBqFzZzTlz9kkMqICNrNggE+uMmqjeHLRtY/tISzK/mrN5SkbN6oUzjGeh9ewrYooAzodFtItKuNNbfJbzmQuGPJ3kkjI+tVLXw0kMlvJcalf3klvKJIjO64UBSoXCqBjBPOMnua3KKAObvvCcb20f2K8u7e4jkkIkjkVSySNl1OVYY9OM8DkVZXwrp8dpPaxGWOGYwnarD5fLxtxx/sjNbdZuuX82mad9shRXEcqeaG/uFgGI+mc/hQA7UdJj1G4tJ2uJoXtmYr5e35gwwVOQePpg1Sbwrp8ltDbu8zJDbG2X5hkDIIPT7wIFY914quIGOoNAHthDdSQKjMC6IVCkgHBznPT6VlaJq+o2Nm9pp9pHHLc3ceLieyuIYy0gJY7JGyWBGSQfm9qAOvtfDUcJge41G9vJorgXAknZeSFKgYVQoGD2Az3qa10C1tJrWWOSYtbGYpuI58wgtnj24pPD1/eX9hL9v8k3MFxJbu8ClUfY2NwBJIz6ZNa1AGVdaBa3bXxkklH2xomk2kcGPGMcf7IzTB4cswsal5iqXMlyAWHLPnI6dPmNbFFAHLw+B7OKMRyX99Mqx+TGHKDZHuDBRhRnBHU5PvW7bafFa313dozmS6KFwTwNq7Rj8BVuigDkPE+oQ6X4y8OXNwlw6eTeLi3geZskR/woCce+Kvf8Jppf8Az7ax/wCCi6/+N0zVv+R88N/9e97/ACirpKAOe/4TTS/+fbWP/BRdf/G6P+E00v8A59tY/wDBRdf/ABuuhooA57/hNNL/AOfbWP8AwUXX/wAbo/4TTS/+fbWP/BRdf/G66GigDnv+E00v/n21j/wUXX/xuj/hNNL/AOfbWP8AwUXX/wAbroaKAOe/4TTS/wDn21j/AMFF1/8AG6P+E00v/n21j/wUXX/xuuhooA57/hNNL/59tY/8FF1/8bo/4TTS/wDn21j/AMFF1/8AG66GigDnv+E00v8A59tY/wDBRdf/ABuue8EeLNOtfB9hDJb6qWXzMmPS7h1/1jHghCDXoVc18P8A/kSNO+kn/oxqAJP+E00v/n21j/wUXX/xuj/hNNL/AOfbWP8AwUXX/wAbroaKAOe/4TTS/wDn21j/AMFF1/8AG6P+E00v/n21j/wUXX/xuuhooA57/hNNL/59tY/8FF1/8bo/4TTS/wDn21j/AMFF1/8AG66GigDnv+E00v8A59tY/wDBRdf/ABuj/hNNL/59tY/8FF1/8broaKAOQ1PXfDms2wgv9N1aZFbchOkXQZG/vKRHlT7isSfxhL4Yt2uIptV1LTIxlor/AEy5jmjX/ZlMeG+j8/7Vd1qr6qsEaaTDbPM7YaS4chIl/vYAy304+orPtvC0Uk6XetXUmrXancvnjEMR/wBiIfKPqcn3oAyvBes23iDxFrmqWkc8cFxbWTKs8ZRh8snUH+Y4rqtU06LVtMuLCdnWKddrFDhgPasXSOPHfiUf9MbP/wBBkrpaAM680a3vpInleUGOF4RtI6OME9OtUYvClvb3kU0F/ewwoUaS3R1CSsowGY7d3QDIBAOORW/RQBlWugWtobExySn7EZWj3Ec+ZnOePc4pl34ct7zUpLx7i4UyeUXjUrtJjbKnpnuR1pfEWoXun2dsbBYTcT3UVuDMCVUMcE4BGcVzb6r4gurvT4I7i0S9jubqCWUI/kvsTKt5e7J6jjdx1oA6IaDDDq0V9Gzs/wBpedtzgAFk2HAxz06ZFOv/AA9aahLdySyTK9wka7kYAxlCSrLx1BPvXFa/4jlubTTbyQQCa3jW5aFLaeYh923O9MLEODgtn6cVurr+tNq+8iyGmrqQsTH5beawZQQ27dgYJ6Y5oA07DwxbWU8Fy11c3N1HM8zzzMu6VmXb8wAAwB0AAqSLw5ZwR26iWbFuJgpLDnzCS2ePfiq2ua/caRetCIUdZbYtbZBy0wYDYeecg5/Cub17WJZbSfSbiASNcXzxOwt57lMIisf3cZ3YJ4wCAKAOwn0GCbw/Ho6zzxxRIipKhG9duMHkEZ49Kb/wjtoVw8kz5u/tbZI5fAGOnTiuW/4SbXRp5ltLe2torKyjnmiu4pC7/MVKjLArkLkEgn1Fd8jb41bGMgGgDno/B9utvcWz6jfyWskRhjgZ1CwITnC4UZ+rbiKu3Hh+1uJp5XkmDTTQzNgjgxnK446eta1FABXO6d/yP2v/APXlZf8AoU9dFXO6d/yP2v8A/XlZf+hT0AdFRRRQAUUUUAFFFFABRRRQAVzEf/I+av8A9g+y/wDQ7munrmI/+R81f/sH2X/odzQBN4D/AOSe+HP+wZb/APota6Gue8B/8k98Of8AYMt//Ra10NABRRRQAUUUUAFc7qH/ACP+hf8AXhe/+hW9dFXO6qRB438PzyHbG8F1bKT3kbymA/ERt+VAHRUUUUAFFFFABUVzbQ3lrLbXCCSGZCjof4lIwRUtFAGcmg6YkNvCLRPKt4Gt4kJJAjYAFcd+g61BZ+F9KsQvlQyuyyrKHmuJJGDKCF+ZiTgAnA6VsUUAQWtnBZLKtumwSyNK/JOWY5J5qeiigAooooAKKKKAOb1b/kfPDf8A173v8oq6Sub1DE/xA0VIzlrW0uZJR/dVyiqfxKt+VdJQAUUUUAFFFFABRRRQAUUUUAFFFFABXNfD/wD5EfTvpJ/6Maulrmvh/wD8iPp30k/9GNQB0tFFFABRRRQAUUUUAFFFFABRRRQBzekf8j34l/642f8A6DJXSVzenYg8f65HIcPc2ttLEP7ypvVj+BYfnXSUAFFFFAEF1ZwXgiE6bxFKsqckYZTkHiq6aNYR3IuFgxKJHlDbj95xhj17ir9FAGFN4P0ScrvtZNoj8oos8iq65JAZQ2GwScZzirw0awUcQf8ALwLr75/1gwA3X2HHSr9FAFO90uy1Ga0mu7dZZLSXzoGJPyPjGarXfhzTL2KRJIZFMkxnMkMzxuHIAJDKQRkDBAOK1aKAMtfDulJbS262oEUsKwOoZuUGcDr7nnrWmoCqFHQDApaKACiiigArndO/5H7X/wDrysv/AEKeuirndJIn8a+IZ4zujSG1tiR/z0XzGYfgJF/OgDoqKKKACiiigAooooAKKKKACuYj/wCR81f/ALB9l/6Hc109cxH/AMj5q/8A2D7L/wBDuaAJvAf/ACT3w5/2DLf/ANFrXQ1z3gP/AJJ74c/7Blv/AOi1roaACiiigAooooAKparpdvrFi1rcb1GQ6SRnDxuOQynsRV2igDnEPi+yXyRFpWpqvCzyTvbOR/tKEcZ9xj6U77Z4v/6Amj/+DST/AOMV0NFAHPfbPF//AEBNH/8ABpJ/8Yo+2eL/APoCaP8A+DST/wCMV0NFAHPfbPF//QE0f/waSf8Axij7Z4v/AOgJo/8A4NJP/jFdDRQBz32zxf8A9ATR/wDwaSf/ABij7Z4v/wCgJo//AINJP/jFdDRQBz32zxf/ANATR/8AwaSf/GKPtni//oCaP/4NJP8A4xXQ0UAc99s8X/8AQE0f/wAGkn/xij7Z4v8A+gJo/wD4NJP/AIxXQ0UAc99s8X/9ATR//BpJ/wDGKQ3HjCUbBpujWxP/AC1N7JNt99vlrn8xXRUUAZWjaKNM86ee4a7v7khri5cYLY6Ko/hUdh/OtWiigAooooAKKKKACiiigAooooAKKKKACua+H/8AyI+nfST/ANGNXS1zXw//AORH076Sf+jGoA6WiiigAooooAKKKKACiiigAooooAytZ0Uan5FxBcNaahbEtb3KDJXPVWH8SnuP5VSFx4wiGw6bo1yR/wAtReyQ7vfb5bY/M10VFAHPfbPF/wD0BNH/APBpJ/8AGKPtni//AKAmj/8Ag0k/+MV0NFAHPfbPF/8A0BNH/wDBpJ/8Yo+2eL/+gJo//g0k/wDjFdDRQBz32zxf/wBATR//AAaSf/GKo6v4g8U6LpF1qVzoWlNDbRmR1j1NyxA9Mw119c34/wD+RB1v/r1agB/2zxf/ANATR/8AwaSf/GKPtni//oCaP/4NJP8A4xXQ0UAc99s8X/8AQE0f/wAGkn/xij7Z4v8A+gJo/wD4NJP/AIxXQ0UAc99s8X/9ATR//BpJ/wDGKPtni/8A6Amj/wDg0k/+MV0NFAHOOfF96vkmLStMVuGnjne5cD/ZUogB9zn6VraVpdvpFgtpbbiASzyOcvI55LMe5Jq7RQAUUUUAFFFFABRRRQAUUUUAFcxH/wAj5q//AGD7L/0O5rp65iP/AJHzV/8AsH2X/odzQBN4D/5J74c/7Blv/wCi1roa57wH/wAk98Of9gy3/wDRa10NABRRRQAUUUUAFFFYviDULqE2em6cwS/v3KJKwyIUUZeTHfAwAPVhQBsM6KcMyj6mk82P/non/fQrBj8EeHyub3T4tRnPLT34892Prls4+gwKd/wg/hT/AKFvSf8AwDT/AAoA3PNj/wCeif8AfQo82P8A56J/30Kw/wDhB/Cn/Qt6T/4Bp/hR/wAIP4U/6FvSf/ANP8KANzzY/wDnon/fQo82P/non/fQrD/4Qfwp/wBC3pP/AIBp/hR/wg/hT/oW9J/8A0/woA3PNj/56J/30KPNj/56J/30Kw/+EH8Kf9C3pP8A4Bp/hR/wg/hT/oW9J/8AANP8KANzzY/+eif99CjzY/8Anon/AH0Kw/8AhB/Cn/Qt6T/4Bp/hR/wg/hT/AKFvSf8AwDT/AAoA3PNj/wCeif8AfQo82P8A56J/30Kw/wDhB/Cn/Qt6T/4Bp/hR/wAIP4U/6FvSf/ANP8KANzzY/wDnon/fQpRIhOA6k+xrC/4Qfwp/0Lek/wDgGn+FI3gfwuVIj0OxgbtJbxCJ1+jLgj8DQB0FFc7pNxdaXrTaDe3D3MTRefZXMhy7IDho2Pdl4Oe4IzzXRUAFFFFABRRRQAUUUUAFFFFABRRRQAVzXw//AORH076Sf+jGrpa5r4f/APIj6d9JP/RjUAdLRRRQAUUUUAFFFFABRRRQAUUUUAFFFFABRRRQAUUUUAFc34//AORB1v8A69WrpK5vx/8A8iDrf/Xq1AHSUUUUAFFFFABRRRQAUUUUAFFFFABRRRQAUUUUAFFFFABXMR/8j5q//YPsv/Q7munrmI/+R81f/sH2X/odzQBN4D/5J74c/wCwZb/+i1roa57wH/yT3w5/2DLf/wBFrXQ0AFFFFABRRRQAVzuof8j/AKF/14Xv/oVvXRVzuof8j/oX/Xhe/wDoVvQB0VFFFABRRRQAUUZ5x3ooAKKKCcdaACiiigAooooAKKKKAOO8V6vYaH4q0HUNSuUtrSK2vS8j9OkfYdT7Vm/8LCtNcH+ga7pGkWTf8vN1cxtO49UjzhfqxJ/2a2tetoLzxp4ft7mGOaGS2vVeORQysMRcEHrTj4ZutJJfw7dpHEOf7PuwZID7K33o/wAMgf3aAINK8ReD9JgdE8V2VxJK2+Wa41FXd29eTgfQAD2rQ/4Tfwp/0Mmk/wDgZH/jVzSria9gf7bpTWM8bbWRirq3+0jDqv1wfar/AJMX/PNP++RQBif8Jv4U/wChk0n/AMDI/wDGj/hN/Cn/AEMmk/8AgZH/AI1t+TF/zzT/AL5FHkxf880/75FAGJ/wm/hT/oZNJ/8AAyP/ABo/4Tfwp/0Mmk/+Bkf+Nbfkxf8APNP++RR5MX/PNP8AvkUAYn/Cb+FP+hk0n/wMj/xo/wCE38Kf9DJpP/gZH/jW35MX/PNP++RR5MX/ADzT/vkUAYn/AAm/hT/oZNJ/8DI/8aP+E38Kf9DJpP8A4GR/41t+TF/zzT/vkUeTF/zzT/vkUAYn/Cb+FP8AoZNJ/wDAyP8AxrnvA/i/w1aeDrCC41/TIpV8zcj3SAj94x6E13nkxf8APNP++RXNeAIoz4I04mNSf3nYf89GoAtf8Jv4U/6GTSf/AAMj/wAaP+E38Kf9DJpP/gZH/jW35MX/ADzT/vkUeTF/zzT/AL5FAGJ/wm/hT/oZNJ/8DI/8aP8AhN/Cn/QyaT/4GR/41t+TF/zzT/vkUeTF/wA80/75FAGJ/wAJv4U/6GTSf/AyP/Gj/hN/Cn/QyaT/AOBkf+Nbfkxf880/75FHkxf880/75FAGJ/wm/hT/AKGTSf8AwMj/AMaP+E38Kf8AQyaT/wCBkf8AjW35MX/PNP8AvkUeTF/zzT/vkUAYn/Cb+FP+hk0n/wADI/8AGj/hN/Cn/QyaT/4GR/41t+TF/wA80/75FHkxf880/wC+RQBif8Jv4U/6GTSf/AyP/Gj/AITfwp/0Mmk/+Bkf+Nbfkxf880/75FHkxf8APNP++RQBif8ACb+FP+hk0n/wMj/xo/4Tfwp/0Mmk/wDgZH/jW35MX/PNP++RR5MX/PNP++RQBif8Jv4U/wChk0n/AMDI/wDGj/hN/Cn/AEMmk/8AgZH/AI1t+TF/zzT/AL5FHkxf880/75FAGJ/wm/hT/oZNJ/8AAyP/ABrB8aeLPDt/4N1a0s9d064uZrcpHDFcozux6AAHJNdz5MX/ADzT/vkUCKMHIjT8qAH0UUUAFFFFABRRRQAUUUUAFFFFABRRRQAUUUUAFFFFABXMR/8AI+av/wBg+y/9Dua6euYj/wCR81f/ALB9l/6Hc0ATeA/+Se+HP+wZb/8Aota6Gue8B/8AJPfDn/YMt/8A0WtdDQAUUUUAFFFFABXO6h/yP+hf9eF7/wChW9dFXO6h/wAj/oX/AF4Xv/oVvQB0VFFFAHC3ep3um+IdduZbuU6adluVZuLZzECrj0BJwffFV01jXLZjdW88UkEGm2s0q3O5zISWDBcEbSRzu5+ldpNo2n3EV9FNbLJHfjFyrEkSDbt/DgdqjGgaYIHgFt+7eBLdl3tzGn3R17UAchPrTf8ACdW86mKXMhtAEtp/kGwt/ruIycjlMZ9+K1fD2v6re3Gnf2j9iMepW7zQpbqwaIpjO4kncDnsBj3q/wD8Inpo1Nr1YmBLeaqGWQqkuCC6ru2jIPOBz3pfD/hax0CGPyt8twsYjMruxAHfapJCA9wuKAOevrrXE16+SG/Qp/advHBGVYBAYiSG+bkdyBjJFF5e6lr9pDosyWBuzNcCWV0k8lvJIAIUMCMkg8scYzzXWPoWnyag180LGdnSQnzG27lBCnbnGcHHSoLzwxpN9D5Utu4HmvNuimeNwz/e+ZSDg9xnFAHNHxXrM9sLmwisorWCxhupFnDSM5LFWQEMMcDIY5+lX08Q6rNqME0YtBpsuofYfKZG84YBy27OOo6Y6d63ToOmGOSP7KqpJCsDKpIGxeg4PHWsf/hEGfxSuqy3UQt45RNHbxRup3hdoLEuVzg8kKCeOaAIPEN3qVrr9w8V0n2OPSpJDb7WBLBuu4MMflmmWniDWnv7eRxZf2c999h8vY/mn5SQ+7djtjGPxro77RLDUblZ7qJ2kETQ8SMoKN1BAOD+PShNE0+NUVYMBLj7SvzHiTGM9ffpQBoUUUUAc3q3/I+eG/8Ar3vf5RV0lc3q3/I+eG/+ve9/lFXSE4GT0oAKKq2WpWWomb7FdRXAhfy5DE24K3pkd6tUAFFFFABRRRQAUUUUAFFFFABXNfD/AP5EfTvpJ/6Maulrmvh//wAiPp30k/8ARjUAdLRRRQAUUUUAFFFFABRRRQAUUUUAFFFFABRRRQAUUUUAFFFFABRRRQAUUUUAFFFFABRRRQAUUUUAFFFFABRRRQAUUUUAFcxH/wAj5q//AGD7L/0O5rp65iP/AJHzV/8AsH2X/odzQBN4D/5J74c/7Blv/wCi1roa57wH/wAk98Of9gy3/wDRa10NABRRRQAUUUUAFc7qH/I/6F/14Xv/AKFb10Vc7qpEHjfw/PIdsbwXVspPeRvKYD8RG35UAdFRRRQAUUUUAFFFFABRRRQAUUUUAFFFFABRRRQBxPjTUrnSfEWiX1pps+ozxWt6y20BAZ/lj9f6ZPtWHpur6j4ugNzqekateQA4bTrOa3jijP8AdkBmDsfUNgf7NddqGJ/iBoqRnLWtpcySj+6rlFU/iVb8qu6n4a0/U5xd7ZLW/UYS8tW8uUexI+8PZsj2oAoW+tXlnAkFt4K1WGFBhUja1VQPYCapf+Ej1P8A6FDWf+/lr/8AHq0tKg1K2geLUryK8ZW/dTLF5bFf9sZxu9xgewq/QBz3/CR6n/0KGs/9/LX/AOPUf8JHqf8A0KGs/wDfy1/+PV0NFAHPf8JHqf8A0KGs/wDfy1/+PUf8JHqf/Qoaz/38tf8A49XQ0UAc9/wkep/9ChrP/fy1/wDj1H/CR6n/ANChrP8A38tf/j1dDRQBz3/CR6n/ANChrP8A38tf/j1H/CR6n/0KGs/9/LX/AOPV0NFAHPf8JHqf/Qoaz/38tf8A49XPeCNe1GDwfYRx+F9VnUeZiSOS3Cn943TMoP6V6FXNfD//AJEfTvpJ/wCjGoAk/wCEj1P/AKFDWf8Av5a//HqP+Ej1P/oUNZ/7+Wv/AMeroaKAOe/4SPU/+hQ1n/v5a/8Ax6j/AISPU/8AoUNZ/wC/lr/8eroaKAOe/wCEj1P/AKFDWf8Av5a//HqP+Ej1P/oUNZ/7+Wv/AMeroaKAOe/4SPU/+hQ1n/v5a/8Ax6j/AISPU/8AoUNZ/wC/lr/8eroaKAOe/wCEj1P/AKFDWf8Av5a//HqP+Ej1P/oUNZ/7+Wv/AMeroaKAOe/4SPU/+hQ1n/v5a/8Ax6j/AISPU/8AoUNZ/wC/lr/8eroaKAOe/wCEj1P/AKFDWf8Av5a//HqP+Ej1P/oUNZ/7+Wv/AMeroaKAOe/4SPU/+hQ1n/v5a/8Ax6j/AISPU/8AoUNZ/wC/lr/8eroaKAOe/wCEj1P/AKFDWf8Av5a//HqP+Ej1P/oUNZ/7+Wv/AMeroaKAOe/4SPU/+hQ1n/v5a/8Ax6j/AISPU/8AoUNZ/wC/lr/8eroaKAOe/wCEj1P/AKFDWf8Av5a//HqP+Ej1P/oUNZ/7+Wv/AMeroaKAOe/4SPU/+hQ1n/v5a/8Ax6j/AISPU/8AoUNZ/wC/lr/8eroaKAOe/wCEj1P/AKFDWf8Av5a//HqP+Ej1P/oUNZ/7+Wv/AMeroaKAOe/4SPU/+hQ1n/v5a/8Ax6r2i60usxXR+x3FpNazm3mguNu5W2q3VWYEYdTwa0653wz/AMhPxR/2Fv8A23goA6KiiigAooooAKKKKACuYj/5HzV/+wfZf+h3NdPXMR/8j5q//YPsv/Q7mgCbwH/yT3w5/wBgy3/9FrXQ1z3gP/knvhz/ALBlv/6LWuhoAKKKKACiiigAqlqul2+sWLWtxvUZDpJGcPG45DKexFXaKAOcQ+L7JfJEWlamq8LPJO9s5H+0oRxn3GPpTvtni/8A6Amj/wDg0k/+MV0NFAHPfbPF/wD0BNH/APBpJ/8AGKPtni//AKAmj/8Ag0k/+MV0NFAHPfbPF/8A0BNH/wDBpJ/8Yo+2eL/+gJo//g0k/wDjFdDRQBz32zxf/wBATR//AAaSf/GKpaR4g8U61pFrqVtoWlLDcxiRFk1NwwB9cQ111c54B/5EHQ/+vRP5UAO+2eL/APoCaP8A+DST/wCMUfbPF/8A0BNH/wDBpJ/8YroaKAOe+2eL/wDoCaP/AODST/4xR9s8X/8AQE0f/wAGkn/xiuhooA577Z4v/wCgJo//AINJP/jFIbjxhKNg03RrYn/lqb2Sbb77fLXP5iuiooAytG0UaZ5089w13f3JDXFy4wWx0VR/Co7D+datFFABRRRQAUUUUAFFFFABRRRQAUUUUAFc18P/APkR9O+kn/oxq6Wua+H/APyI+nfST/0Y1AHS0UUUAFFFFABRRRQAUUUUAFFFFABRRRQAUUUUAFFFFABRRRQAUUUUAFFFFABRRRQAUUUUAFc74Z/5Cfij/sLf+28FdFXO+Gf+Qn4o/wCwt/7bwUAdFRRRQAUUUUAFFFFABXMR/wDI+av/ANg+y/8AQ7munrmI/wDkfNX/AOwfZf8AodzQBN4D/wCSe+HP+wZb/wDota6Gue8B/wDJPfDn/YMt/wD0WtdDQAUUUUAFFFFABRRRQAUUUUAFFFFABRRRQAVzngH/AJEHQ/8Ar0T+VdHXOeAf+RB0P/r0T+VAHR0UUUAFFFFABRRRQAUUUUAFFFFABRRRQAUUUUAFFFFABRRRQAVzXw//AORH076Sf+jGrpa5r4f/APIj6d9JP/RjUAdLRRRQAUUUUAFFFFABRRRQAUUUUAFFFFABRRRQAUUUUAFFFFABRRRQAUUUUAFFFFABRRRQAVzvhn/kJ+KP+wt/7bwV0Vc74Z/5Cfij/sLf+28FAHRUUUUAFFFFABRRRQAVzEf/ACPmr/8AYPsv/Q7munrmI/8AkfNX/wCwfZf+h3NAE3gP/knvhz/sGW//AKLWuhrnvAf/ACT3w5/2DLf/ANFrXQ0AFFFFABRRRQAUUUUAFFFFABRRRQAUUUUAFc54B/5EHQ/+vRP5V0dc54B/5EHQ/wDr0T+VAHR0UUUAFFFFABRRRQAUUUUAFFFFABRRRQAUUUUAFFFFABRRRQAVzXw//wCRH076Sf8Aoxq6Wua+H/8AyI+nfST/ANGNQB0tFFFABRRRQAUUUUAFFFFABRRRQAUUUUAFFFFABRRRQAUUUUAFFFFABRRRQAUUUUAFFFFABXO+Gf8AkJ+KP+wt/wC28FdFXO+Gf+Qn4o/7C3/tvBQB0VFFFABRRRQAUUUUAFcxH/yPmr/9g+y/9Dua6euYj/5HzV/+wfZf+h3NAE3gP/knvhz/ALBlv/6LWuhrnvAf/JPfDn/YMt//AEWtdDQAUUUUAFFFFABRRRQAUUUUAFFFFABRRRQAVzngH/kQdD/69E/lXR1zngH/AJEHQ/8Ar0T+VAHR0UUUAFFFFABRRRQAUUUUAFFFFABRRRQAUUUUAFFFFABRRRQAVzXw/wD+RH076Sf+jGrpa5r4f/8AIj6d9JP/AEY1AHS0UUUAFFFFABRRWVrOtDTDDbW9u13qFySILZGxnHVmP8Kjuf50AatFc6LfxhKN51LRrYn/AJZCykl2+27zVz+QpfsfjD/oNaN/4K5P/j9AHQ0Vz32Pxh/0GtG/8Fcn/wAfo+x+MP8AoNaN/wCCuT/4/QB0NFc99j8Yf9BrRv8AwVyf/H6PsfjD/oNaN/4K5P8A4/QB0NFc99j8Yf8AQa0b/wAFcn/x+j7H4w/6DWjf+CuT/wCP0AdDRXPfY/GH/Qa0b/wVyf8Ax+j7H4w/6DWjf+CuT/4/QB0NFc99j8Yf9BrRv/BXJ/8AH6PsfjD/AKDWjf8Agrk/+P0AdDRXPfY/GH/Qa0b/AMFcn/x+mv8A8JfYr5zSaXqaLy0EUL2zkf7JLuCfY4+tAHR0VS0rVLbWLBLu2LBSSrI4w8bDgqw7EGrtABRRRQAUUUUAFc74Z/5Cfij/ALC3/tvBXRVzvhn/AJCfij/sLf8AtvBQB0VFFFABRRRQAUUUUAFcxH/yPmr/APYPsv8A0O5rp65iP/kfNX/7B9l/6Hc0ATeA/wDknvhz/sGW/wD6LWuhrnvAf/JPfDn/AGDLf/0WtdDQAUUUUAFFFFABRRRQAUUUUAFFFFABRRRQAVzngH/kQdD/AOvRP5V0dc54B/5EHQ/+vRP5UAdHRRRQAUUUUAFFFFABRRRQAUUUUAFFFFABRRRQAUUUUAFFFFABXNfD/wD5EfTvpJ/6Maulrmvh/wD8iPp30k/9GNQB0tFFFABRRRQAVzWmYn8fa9JIMvbW9tDEf7qsGZh+JArpa4601GGw8fa2kquTdPZwoVAwD5bnJ9uKAOxorJs9fgvp1WGGbyXkMcU7lVWXAySoJyRxjOP0rO0DWvtNzrVzdanE9pFcBYx9ohZIF6YJXkHPZie1AHT0Vm2/iDRruaGG31ayllmLCJEnVi5X72ADzjvTLnxFplnrS6Vc3UcVybc3HzuoAQHBzk0AatFZh8R6Gq2zHV7EC6OICbhf3pzj5eeeeOKXU9dsNIubGC8nWN72XyodzAZbGe5oA0qKy9M8Q6ZqyP8AZrqIzIpeS3Mi+ZGASMsueBxVbS/E9lfadPfXE9nbwRTGLzBdpIh9MsDgH2oA3aKzjr+jrp0eoHVLIWUrbUuDOvlsc4wGzgnNJqevadpWiSavPcIbNAD5iOCGyccHOKANKistvEWlQ273Fzf2ttArlBJLOgVsAHIOfQ9+avi6tza/ahPGbfZv83cNu3Gc56YoAlorjpvGkV9o2p3FnushahfKu554PJlJPy4YOwwcd8fnXQ6fq1te2EFwZoFaWHziqyqw2jgsCDyue9AGZo4EPjTxHbxjbE0drcFR/fcSKx/ERr+VdHXNaQ6S+OtfkjYOjWdiyspyCD52CK6WgAooooAKKKKACud8M/8AIT8Uf9hb/wBt4K6Kud8M/wDIT8Uf9hb/ANt4KAOiooooAKKKKACiiigArmI/+R81f/sH2X/odzXT1zEf/I+av/2D7L/0O5oAm8B/8k98Of8AYMt//Ra10Nc94D/5J74c/wCwZb/+i1roaACiiigAooooAKKKKACiiigAooooAKKKKACuc8A/8iDof/Xon8q6Oubj8DaNBGI4JNUhiXhY4tUuURR6BQ+APYUAdJRXPf8ACF6Z/wA/Ws/+De6/+OUf8IXpn/P1rP8A4N7r/wCOUAdDRXPf8IXpn/P1rP8A4N7r/wCOUf8ACF6Z/wA/Ws/+De6/+OUAdDRXPf8ACF6Z/wA/Ws/+De6/+OUf8IXpn/P1rP8A4N7r/wCOUAdDRXPf8IXpn/P1rP8A4N7r/wCOUf8ACF6Z/wA/Ws/+De6/+OUAdDRXPf8ACF6Z/wA/Ws/+De6/+OUf8IXpn/P1rP8A4N7r/wCOUAdDRXPf8IXpn/P1rP8A4N7r/wCOUf8ACF6Z/wA/Ws/+De6/+OUAdDRXPf8ACF6Z/wA/Ws/+De6/+OUf8IXpn/P1rP8A4N7r/wCOUAdDRXPf8IXpn/P1rP8A4N7r/wCOUf8ACF6Z/wA/Ws/+De6/+OUAdDRXPf8ACF6Z/wA/Ws/+De6/+OUf8IXpn/P1rP8A4N7r/wCOUAdDXNfD/wD5EjTvpJ/6MapP+EL0z/n61n/wb3X/AMcrnvBHhPTrrwfYTPcaqrN5mRHqlwi/6xhwA4AoA9Cornv+EL0z/n61n/wb3X/xyj/hC9M/5+tZ/wDBvdf/ABygDoaz9WTVWhjfSZrZZkbLR3KErKP7u4cqffB+lZ3/AAhemf8AP1rP/g3uv/jlUdT0Lw7o1uJ7/UtWhRm2oDq90Wdv7qqJMsfYUAX7XxTClwlnrNtLpN4x2qJzmKU/7Eo+U/Q4PtXMaroP/CReMtUtGWVrZbizkuDFMY2CeVIOoIPUjpUdx4Ol8UW7W8cWq6bpkgw0t9qdxJNIv+zEZML9W5/2a1vBej2+geIde0u1knkht4bNFaeQu5xG3Un/APVQAkuj61cpbaZJBiOyMsUV6HUB42iKocA5BHAPHvzWTaeFNUm0u8gura+kf7LFaBbuS32yBXBO0RqMrxwXOfavTKKAOQl0C5/tKa4js0G7VoLgOCoJjVcE/h6U/wAUaVfX19KbazM6TadJb7wyjaxdWAOSDggHpXWUUAef+J9E1u8uJLawtpVtntY0Q24gCOVOSspcF/ps/Ouk1u1upZtIngtWn+z3IaRVKgqpUjd8xHTPbmtyoLq8gsxEbiTYJZFiQ4JyzdBQBxH/AAid9/ZFnaw20cEq211G7Bl4LsSAT3BpU0PUNRvVvJdGFlELi0DWzuhJERyznaSMDOB39hW7q/iizsrR2t590ySlNotpZfu435CAkAA/e6CrE/inR7e4t4ZLv5p1V1ZY2ZFVvul2AwgPbcRmgDk9VCeG5kv7+O3Fub658u3eeOPcJEADruIB75HXB6GtSDTrq4+GMdnDa/6Q1vlIOB/FkAZwOnriuvZVb7yg/UUtAHGW2g3cutQ3lxYARreXE4EjKSgeEKOATznIq2NGvR4Gi09YF+0xAN5BYAOA+7ZkccjiuoooA4K9stbnea+ttIns/OuYnKRfZ2uUUIQWXeTGDnAPJ46VBZ6Nr2mWUA/s17qaS0ubZyJowUZ5Nys3QYI67R17V6JRQByPheCS28TanBKu2SLTNOR1znBAmBrrq5zTP+R+8Q/9ell/OaujoAKKKKACiiigArnfDP8AyE/FH/YW/wDbeCuirnfDP/IT8Uf9hb/23goA6KiiigAooooAKKKKACuYj/5HzV/+wfZf+h3NdPXMR/8AI+av/wBg+y/9DuaAJvAf/JPfDn/YMt//AEWtdDXPeA/+Se+HP+wZb/8Aota6GgAooooAKKKKACiiigAooooAKKKKACiiigAooooAKKKKACiiigAooooAKKKKACiiigAooooAKKKKACiiigAooooAK5r4f/8AIj6d9JP/AEY1dLXNfD//AJEfTvpJ/wCjGoA6WiiigAprRxu6uyKzJypIyV+lOooAK5rRv+R68T/7ln/6A9dLXNaP/wAjz4n/ANyz/wDQHoA6WiiigAooooAKzde02TVdGuLWB0juCN0EjjhJBypP41pUUAcRqHhTVptN0+zhuEZFhkW6VLyW2HnPyZAU5cZJ+UkDFI/hTV0tWsYns2t7y1t4LuV3bdEYxglFwQ2fcjHvXcUUAIo2qAOwxS0UUAFFFFABRRRQBzmmf8j94h/69LL+c1dHXOaZ/wAj74h/69LL+c1dHQAUUUUAFFFFABXO+Gf+Qn4o/wCwt/7bwV0Vc74Z/wCQn4o/7C3/ALbwUAdFRRRQAUUUUAFFFFABXMR/8j5q/wD2D7L/ANDua6euYj/5HzV/+wfZf+h3NAE3gP8A5J74c/7Blv8A+i1roa57wH/yT3w5/wBgy3/9FrXQ0AFFFFABRRRQAUUUUAFFFFABRRRQAUUUUAFFFFABRRRQAUUUUAFFFFABRRRQAUUUUAFFFFABRRRQAUUUUAFFFFABXNfD/wD5EfTvpJ/6Maulrmvh/wD8iPp30k/9GNQB0tFFFABRRRQAVzmqwXWk62Nes7eS5gkiEN9bxDLlQcrIo/iI5GO4PHNdHRQBz6+OPC5UGTXbGBu8dxMInX6q2CPxFO/4Tfwp/wBDJpP/AIGR/wCNbhijJyUUn3FJ5MX/ADzT/vkUAYn/AAm/hT/oZNJ/8DI/8aP+E38Kf9DJpP8A4GR/41t+TF/zzT/vkUeTF/zzT/vkUAYn/Cb+FP8AoZNJ/wDAyP8Axo/4Tfwp/wBDJpP/AIGR/wCNbfkxf880/wC+RR5MX/PNP++RQBh/8Jx4UHXxLpP/AIGR/wCNL/wm/hT/AKGTSf8AwMj/AMareP4ox4D1giNM+R/dHqK6TyYv+eaf98igDE/4Tfwp/wBDJpP/AIGR/wCNH/Cb+FP+hk0n/wADI/8AGtvyYv8Anmn/AHyKPJi/55p/3yKAMT/hN/Cn/QyaT/4GR/40f8Jv4U/6GTSf/AyP/GtvyYv+eaf98ijyYv8Anmn/AHyKAMT/AITfwp/0Mmk/+Bkf+NMl8b6AVxY38epTnhILA+e7HsPlzj6nAre8mL/nmn/fIpVRFOVRR9BQBj+HtOurcXeoaiFW/v5BJJGpyIVAwkYPfAzk+pNbVFFABRRRQAUUUUAFc74Z/wCQn4o/7C3/ALbwV0Vc74Z/5Cfij/sLf+28FAHRUUUUAFFFFABRRRQAVzEf/I+av/2D7L/0O5rp65iP/kfNX/7B9l/6Hc0ATeA/+Se+HP8AsGW//ota6Gue8B/8k98Of9gy3/8ARa10NABRRRQAUUUUAFFFFABRRRQAUUUUAFFFFABRRRQAUUUUAFFFFABRRRQAUUUUAFFFFABRRRQAUUUUAFFFFABRRRQAVzXw/wD+RH076Sf+jGrpa5r4f/8AIj6d9JP/AEY1AHS0UUUAFFFFABRRRQAUUUUAFFFFABRRRQBzfxA/5ELWP+uH9RXSVzfxA/5ELWP+uH9RXSUAFFFFABRRRQAUUUUAFFFFABRRRQAUUUUAFc74Z/5Cfij/ALC3/tvBXRVzvhn/AJCfij/sLf8AtvBQB0VFFFABRRRQAUUUUAFcxH/yPmr/APYPsv8A0O5rp65iP/kfNX/7B9l/6Hc0ATeA/wDknvhz/sGW/wD6LWuhrnvAf/JPfDn/AGDLf/0WtdDQAUUUUAFFFFABRRRQAUUUUAFFFFABRRRQAUUUUAFFFFABRRRQAUUUUAFFFFABRRRQAUUUUAFFFFABRRRQAUUUUAFc18P/APkR9O+kn/oxq6Wua+H/APyI+nfST/0Y1AHS0UUUAFFFFABRRRQAUUUUAFFFFABQTgE+lFFAHJeMb+21P4b6td2colgeBgGAI5DYIwfQgiukuL+1tbm1tppQs10xSFMElyBk9PQDNefeMVOiWHiDT/u2WqW7XNvnoswI8xB9RhgPY10mig6z4gvddfm2h3WVj6FVP7yQfVhgH0U+tAHTUUUUAFFFFABRRRQAUUVzIvtU8RXEy6RcpY6ZDIYjeGMSSTsDhvLB4AByNxByQeO9AHTUVzv/AAjuqf8AQ36x/wB+rX/4zS/8I7qn/Q36x/36tf8A4zQB0NFc9/wjuqf9DfrH/fq1/wDjNH/CO6p/0N+sf9+rX/4zQB0Nc74Z/wCQn4o/7C3/ALbwUv8Awjuqf9DfrH/fq1/+M1WtvB93Zy3UkHizWUe6l86Y7LY7n2queYuOFUcelAHVUVz3/CO6p/0N+sf9+rX/AOM0f8I7qn/Q36x/36tf/jNAHQ0Vz3/CO6p/0N+sf9+rX/4zR/wjuqf9DfrH/fq1/wDjNAHQ0Vzp0HW4QXtvFd7JKPurd28Dxn6hEU/kat6Lq8t7JcWN/Ctvqdpjzo1bKup+7Ih/unB9wQRQBr1zEf8AyPmr/wDYPsv/AEO5rp65iP8A5HzV/wDsH2X/AKHc0ATeA/8Aknvhz/sGW/8A6LWuhrnvAf8AyT3w5/2DLf8A9FrXQ0AFFFFABRRRQAUUUUAFFFFABRRRQAUUUUAFFFFABRRRQAUUUUAFFFFABRRRQAUUUUAFFFFABRRRQAUUUUAFFFFABXNfD/8A5EfTvpJ/6Maulrmvh/8A8iPp30k/9GNQB0tFFFABRRRQAUUUUAFFFFABRRRQAUVU1HUrPSbN7q+uEhhX+Jj1PoB1J9hzWDjWfFHJ8/R9IOCAPlurge//ADyU/wDfX+7QBneO0svFmm3Hhm0t5b+9yHY27bVtiD/HJ0Unpt6n0rc8N6pp0lqmlQRSWd1ZoI3srgbZFAHX/aB/vDINamn6bZ6VZpaWFtHbwJ0RBjnuT6n3qvq+hWOspH9oRknhJMFzEdssLeqsOn06HvQBpUVy66vqXhwiHXwbmwGFTVIU6f8AXZB93/eHy+uK6WKWOeJJYZFkjcZV0OQR6g0APooooAztc1aPQ9GudRlQukK5IBwOuOSeg9T2qDRtVv72Z4NQsIoGCCWOa1nM8Min0cqvze2OnNXtRiuprGRLOWOOfqvmLuVv9k+x6Vh+G9DudOv7m7ksNP0yOVAv2TT3LI7Zz5jEqvzdun40Ab18xXT7llOCImIP4GszwcoXwVoZAxvsIXb3ZkBJ/EkmtLUP+Qbdf9cX/ka4jQNb1+10nw1pttpGnzR3GmwtDLJfsh2rEhO5REcHnsTQB6BRWBp3iyxvb5rCXdBd+dJEqlWKMU6gPjbnHO3OcVWsvGFo93qbXV3brZ2y+bGyxyqSgOGYFlw4z3TIFAHUUViR+LdHlsbm7WeUR2ziORHt5Fk3N90BCu5s54wDntVm31uzvtKn1CycyxQ7wwZShDKMlSGGQaANKiuf07xlpGoaabzzmj2QpK6tE/IYcbOP3gzxlc5NNtPFliNJa9vJ2z9oaHyo7WUSBuoXyyu8ttwenv0oA6KiqkWqWU2ljUkuU+x7DJ5pOAFHXOemPSsKLxamqPeW+m4hkQQrBNdwyKGeQkDMZAbHHtnPWgDqKKydG1V7wzW11JAb2F2Ei26vsUA4+8wGT0/OqkPiqCS3eWYRQbUmfDuxPySbB0Xuce/OMGgDoa525+T4iadt483S7nf/ALW2SHb+W5vzp+heIor+yt/tc0Qu5Zmh2JFJGQwBbBRwGU7eef61W+1wX3jvSJ7d98R029UNgjlZoAevuDQB1FcxH/yPmr/9g+y/9Dua6euYj/5HzV/+wfZf+h3NAE3gP/knvhz/ALBlv/6LWuhrnvAf/JPfDn/YMt//AEWtdDQAUUUUAFFFFABRRRQAUUUUAFFFFABRRRQAUUUUAFFFFABRRRQAUUUUAFFFFABRRRQAUUUUAFFFFABRRRQAUUUUAFc18P8A/kR9O+kn/oxq6Wua+H//ACI+nfST/wBGNQB0tFFFABRRRQAU1nRThmUH3NOri4tD0rWvHXiE6pptpemGO0EX2iFZNgKsSBkcUAdj5sf/AD0T/voUebH/AM9E/wC+hWH/AMIP4U/6FvSf/ANP8KP+EH8Kf9C3pP8A4Bp/hQBuebH/AM9E/wC+hWHqHiQm7fTdEtxqOpKPnAbEMHvI/Qf7oyx9O9H/AAg/hT/oW9J/8A0/wqs/h250F3ufCxiijPzSaXJ8sEh9UIGY2+nHqO9AFrT/AA2EvF1PV7g6jqaklJHXEdvntEn8P15J9a3qydI8QWmqySW22S1v4f8AXWdwNsie47Mv+0MitagAooooAQgMCCAQeoNc1L4fu9Gle78MvHGpy0mmSnFvISckqesbfTj1HeumrA1HxIRdvpmi2/8AaOpgfMobEMHvK/Qf7oyx9KALGleIrTU3kt3WSzv4f9daXA2uvuOzL/tDIrU82P8A56J/30K5yLwdaXspu/EYi1i8YYAniBhhH92NDwB7nJPrU/8Awg/hT/oW9J/8A0/woA3PNj/56J/30Kwr+HWba9kvdK1GC5jfBawuyAvT+CRRlfxDD6Uv/CD+FP8AoW9J/wDANP8ACsO/0Tw99tk0/SPBGn3l3HgPLLZpFbxEjPzOV+b6KCfpQBqnxVZXMFxYXqvp2otC4FtdEAudp+4wO1/wOfUCq/hrTZp9K8H6grIIrbSkVwSdxLRIBj8qzV+GWixrLqmpWVhLeRRO0UdrarBBEdp6KOW+rE/QV03g/wD5EnQf+wdb/wDotaAKcfhy5HkBnhAW/muXKk5KurAY468ispvCWsXNl9juHsVitLN7W1ZHYmbcR8z5X5cADgbsnvXa3crQWc8yAFo42YA9MgZrl38YyHRbK8gtjO7vbpM0a5Te5G5F5zuGfoO5oAZ4h064spLrWEAkZJbaSCJI5JNzJkEMEViAc9QDirfh22vbrw3ftcw+RNfSzSIjKV2hhgZBGR+IB9hUOo+JpLrRNthBqFvqc07W626QxvNG68twzbOF5ySR9elK3je1gtIWFpe3rC2FxO8ESqI1B2sWDMMEEHIGT6ZoAof8Ix4hk0xEee0hubWySzh+zzOgmUFS5LBcx524G3JGc5pbLwrrGmoLu3+zSXkd6bmOCe7lkUho9hVpWBYkckHB+grak8WWy6ktqlleSQGZLf7Yir5QlbBC8tu6EHOMe+abrXiObSNYhtlsZruJrWSdkt1BkG1lBPzMBgAk+vpQAQ+HJf8AhD7jSJp0E9wsjO6D5Vd2LED2BOKzzoniCeW41CZNOS9zbtFAkrmM+UxJBfbkZz1wce9X7zxjZWoEqWt3cWiRrLcXMSrst1YZUtkgnjn5Qcd8U3/hM7X7SY/sF95aGPz59i7IRIPlLHdkj6A4+lAFvw9pU+nLfT3aQC6vLlpn8liwAIGFyQM45rn7vwTd3dm0Mk8QwkpXY7KSxnEqjIwRwMEjkdq6LVNZGmajapKY0tHhmlmkYHKhADx+dU/C+sT6hLeQXjXAnUiaOOeFEIib7pBRmBHB6/MO9AGRp3hzVba2t9QtYLVbwXhuDBPeTy7lKFPmlkBbdg5+6B296l0qwuNM8VaJa3bxvOunX7O0edp3Twtxn612tc7d/wDJRNJ/7Bl3/wCjLegDoq5iP/kfNX/7B9l/6Hc109cxH/yPmr/9g+y/9DuaAJvAf/JPfDn/AGDLf/0WtdDXPeA/+Se+HP8AsGW//ota6GgAooooAKKKKACiiigAooooAKKKKACiiigAooooAKKKKACiiigAooooAKKKKACiiigAooooAKKKKACiiigAooooAK5r4f8A/Ij6d9JP/RjV0tc18P8A/kR9O+kn/oxqAOlooooAKKKKACub0j/kePEv/XO0/wDQHrpK5zSP+R38Sf8AXO0/9BegDo6KKKACiiigDN1fQrHWUjNwjJcQkmC5iO2WE+qt2+nQ96yV1fUvDjCHxAPtNjkKmqQp0/67IPu/7w+X1xXUUhAYEEAg8EGgBsUsc8SywyLJG4yrocgj1BqDUNSs9Ks3ur64SCFf4mPU+gHUn2HNYj+HbvSJmuPDM8VujkmTT5wfs7EnllxzGfpwfTvU+n+Gwt4up6xcf2jqSkmN3XEdvntEn8P1OWPrQBU/4nPijn9/o+kHBGPlurge/wDzyU/99f7tb+nabZ6TZpaWFtHbwJ0RBjnuT6k+pq1RQAUUUUAFFFFAFbUP+QZdf9cX/kazvB//ACJOg/8AYOt//Ra1pagCdNugOvkv/I1m+Dz/AMUToPtp9uD9RGuaANW5h+0Ws0O7b5iFM4zjIxXO2/hBbSC1t7e7EcETW8jxiLhpIiPmHPG4Dnr2rp6KAObufDN15rXdhqKQXq3b3MbyweYgDqFZSu4E8DqCOabD4QWCzuLdb1iZ7M27OyZO4sWZ+vqx4rpqKAOFbRtXXxElnbQSppIu47t5ZEjCl1A3bWDlsHA4KDnviunvNI+16l9s8/b/AKJJbbdufvEHdnPbHStOigDkpfC15GkdlbahixuYo4b1fIBY7FxuVtw2ZAAPDdulE/hzUb3WtS3XSwaXcyQl4/L3NKEUfdbd8vIwcg5HTFdbRQBkaxoMWsyxmeUrEIZYXQDlg4A69sYqh4U8MDQWupGjsY2kxGq2liluCq9GbBYsT16gewrpqKACudu/+SiaT/2DLv8A9GW9dFXO3XPxE0vH8OmXefbMkGP5H8qAOirmI/8AkfNX/wCwfZf+h3NdPXMR/wDI+av/ANg+y/8AQ7mgCbwH/wAk98Of9gy3/wDRa10Nc94D/wCSe+HP+wZb/wDota6GgAooooAKKKKACiiigAooooAKKKKACiiigAooooAKKKKACiiigAooooAKKKKACiiigAooooAKKKKACiiigAooooAK5r4f/wDIj6d9JP8A0Y1dLXNfD/8A5EfTvpJ/6MagDpaKKKACiiigArndJ/5HfxH/ANcrT/0F66Kud0r/AJHjxD/1ytf/AEF6AOiooooAKKKKACiiigAooooAKKKKACiiigAooooACAQQRkGuVtze+Eme1+xXF9oxdngktl3y2245KMnVlyTgrkjpjiuqooA53/hNNL/59tY/8FF1/wDG6X/hNNL/AOfbWP8AwUXX/wAbroaKAOe/4TTS/wDn21j/AMFF1/8AG6P+E00v/n21j/wUXX/xuuhooA57/hNNL/59tY/8FF1/8bo/4TTS/wDn21j/AMFF1/8AG66GigDnv+E00v8A59tY/wDBRdf/ABuj/hNNL/59tY/8FF1/8broaKAOe/4TTS/+fbWP/BRdf/G6P+E00v8A59tY/wDBRdf/ABuuhooA50+MbRwVtNN1m5m/hjGnTRZP+9IqqPxNTaLpt2L251jVAi39yqxrCjblt4hkhAe5ySSe5x6VuUUAFcxH/wAj5q//AGD7L/0O5rp65iP/AJHzV/8AsH2X/odzQBN4D/5J74c/7Blv/wCi1roa57wH/wAk98Of9gy3/wDRa10NABRRRQAUUUUAFFFFABRRRQAUUUUAFFFFABRRRQAUUUUAFFFFABRRRQAUUUUAFFFFABRRRQAUUUUAFFFFABRRRQAVzXw//wCRH076Sf8Aoxq6Wua+H/8AyI+nfST/ANGNQB0tFFFABRRRQAVzul/8jzr/AP1xtf5PXRVzum/8j1rv/XC2/k1AHRUVwy6je6nrmrJbazqls9m7eXbmwAtyFUHDO0eTk+jA+ldfpt019plrdMoVpYlcqOgJHNAFqiiigAooooAKKKKACiiigAooooAKKKKACiiigAooooAKKKKACiiigAooooAKKKKACiiigArmI/8AkfNX/wCwfZf+h3NdPXMR/wDI+av/ANg+y/8AQ7mgCbwH/wAk98Of9gy3/wDRa10Nc94D/wCSe+HP+wZb/wDota6GgAooooAKKKKACiiigAooooAKKKKACiiigAooooAKKKKACiiigAooooAKKKKACiiigAooooAKKKKACiiigAooooAK5r4f/wDIj6d9JP8A0Y1dLXNfD/8A5EfTvpJ/6MagDpaKKKACiiigArndO/5HvXP+ve2/k1dFXOaf/wAj3rX/AF7W/wD7NQBJc+GHnvbmVNa1GC3uW3TWsXlbH4wRkoWGQOzVuQwx28EcMShI41Cqo7AcAU+igAooooAKKKKACiiigAooooAKKKKACiiigAooooAKKKKACiiigAooooAKKKKACiiigAooooAK5iP/AJHzV/8AsH2X/odzXT1zEf8AyPmr/wDYPsv/AEO5oAm8B/8AJPfDn/YMt/8A0WtdDXPeA/8Aknvhz/sGW/8A6LWuhoAKKKKACiiigAooooAKKKKACiiigAooooAKKKKACiiigAooooAKKKKACiiigAooooAKKKKACiiigAooooAKKKKACua+H/8AyI+nfST/ANGNXS1zXw//AORH076Sf+jGoA6WiiigAooooAK5yw/5HzWP+vWD/wBmro65yx/5H3Vv+vSD+bUAdHRRRQAUUUUAFFFFABRRRQAUUUUAFFFFABRRRQAUUUUAFFFFABRRRQAUUUUAFFFFABRRRQAUUUUAFcxH/wAj5q//AGD7L/0O5rp65iP/AJHzV/8AsH2X/odzQBN4D/5J74c/7Blv/wCi1roa57wH/wAk98Of9gy3/wDRa10NABRRRQAUUUUAFFFFABRRRQAUUUUAFFFFABRRRQAUUUUAFFFFABRRRQAUUUUAFFFFABRRRQAUUUUAFFFFABRRRQAVzXw//wCRH076Sf8Aoxq6Wua+H/8AyI+nfST/ANGNQB0tFFFABRRRQAVzll/yP2q/9ecP82qXxVa3LadHqNhuN7pz/aI0Bx5qj76H2K5/SsJ/EFvb6tqmt24Mscum272645kZiQi49cnGPrQB3dFZfh7TZNL0aGC4kMl02ZbiQnO6RuW/DPA9hWpQAUUUUAFFFFABRRRQAUUUUAFFFFABRRRQAUUUUAFFFFABRRRQAUUUUAFFFFABRRRQAUUUUAFcxH/yPmr/APYPsv8A0O5rp65iP/kfNX/7B9l/6Hc0ATeA/wDknvhz/sGW/wD6LWuhrnvAf/JPfDn/AGDLf/0WtdDQAUUUUAFFFFABRRRQAUUUUAFFFFABRRRQAUUUUAFFFFABRRRQAUUUUAFFFFABRRRQAUUUUAFFFFABRRRQAUUUUAFc18P/APkR9O+kn/oxq6Wua+H/APyI+nfST/0Y1AHS0UVBe3K2VhcXbjKwRNIQO4UZ/pQBV1TXdN0cxre3SpLLny4VUvI+Ou1FBJ/AVnf8Jppf/PtrH/gouv8A43S+E7ADTU1i6xLqWooJ5piOQrcqi+igEDH1roCMqQCQT3HagDnv+E00v/n21j/wUXX/AMbrgNNS2tPH013Jb6wdChAuLWP+ybniUk/Ljy+iklh7tXV2yavF4g1mKTxHfzQWECSxxSRQAMWVjhiIwcDA6EUtn4wvYdLLapYlHNgtzDLFKC0uSF+YEAIdxB7jH5UAan/CaaX/AM+2sf8Agouv/jdH/CaaX/z7ax/4KLr/AON1k2evajo9odOmspbnVBeRw+XNe+YoEoJVvM2A7Rg5G3jtVkeL76W2VYNJie/jSWS6gN1hY1jODtbb8xJxjge+KALv/CaaX/z7ax/4KLr/AON0f8Jppf8Az7ax/wCCi6/+N0zV9bu08M2Gp2URE1xJAfJyCSHIyuT9etUtS8VXMOjXAuILOxvEmNtM02oiKGM7cgrKVySR0+XOfTrQBof8Jppf/PtrH/gouv8A43R/wmml/wDPtrH/AIKLr/43WfD4unfTbF9N037V/oX2qfzLv7kanadrYO9jgkZxkd609X1iSLT9LvbNyI7meMkEDLRsM456UAM/4TTS/wDn21j/AMFF1/8AG6P+E00v/n21j/wUXX/xumS+KXWfT4Y7He93aG6I8zGxRjI6ds+1W9P177fdWMP2bZ9qszdZ3528gbenPXrQBX/4TTSh96DVkHdn0m5UD6kx8Vr6fqVlqtot1YXMVxAxxvjbIyOoPofarVcvq8KaHr2n6vaARLeXKWd7GowJd/yo2P7wbHPoSKAOoooooAKKKKACiiigAooooAKKKKACiiigAooooAKKKKACiiigArmI/wDkfNX/AOwfZf8AodzXT1zEf/I+av8A9g+y/wDQ7mgCbwH/AMk98Of9gy3/APRa10Nc94D/AOSe+HP+wZb/APota6GgAooooAKKKKACiiigAooooAKKKKACiiigAooooAKKKKACiiigAooooAKKKKACiiigAooooAKKKKACiiigAooooAK5r4f/APIj6d9JP/RjV0tc18P/APkR9O+kn/oxqAOlrN8Q/wDItar/ANec3/oBrSrN8Q/8i1qv/XnN/wCgGgBPDf8AyK2kf9eUP/oArTrM8N/8itpH/XlD/wCgCrWoqX0y6VXaMmFwHXGRweRmgCuNHtvt2oXQeTzL6JY5BkYAUEDHHvWfPoGkO0NhPct5hsjaxxGUB2jBB3Adcggc9K5C0TUra2tprXWJke20VZjIY0ZpCJM7W+XG3HHAB96vTalczauurNPCssF5DaLZmFDvV1BLbsb93JIwQOOhoA6S18LW8BWWe8u7u6Fwlw9zMy73KDCg7VAwB6AVma34WvmCDRWCPI0vnTSXPlnZJ1XAjbcO/VTx1qhZ6zrdtDb6hPqLXgure6b7MYkCIYydpUgA9BzkmtXw1eXz6vJa3OrnUIzZRXALIilGc8/dA49P60AaU3h+C50C00ma4lC24ixJEQrFkxg857iqh8HW5WFxqN8t5HM0z3f7sySlhtYMCm3GOOAMdq5uKa7029vmjvWmdr2+ZDNGh8srECMYUEDP8q3vDF1qn9ofZtQ1J70S2MN1l40Ty3b7wXaB8v1yfegCWTwZZtbW0EF/fW4iia3cxyLmaItuKNlT37jB960dQ07TntbG2uJBBDDKghTeFDEDCpz1+nWuJgsrx9f8qHV7mN5NUvMS7Iy0Q8ofdG3H5g0mr+INRm0O0cXFy88Vq1xMttDBtJV9oeQynG3jogzmgDrtO8Lwafc+c97eXW2BreNZ2XEcRIO0bVGcY6nJ96NI8L2+k3qXS315ctHC1vEs7KVjjLA7RhRnGOpyfesAarrMl4L7+02W3S/gt/sgiTYyOqlsnG7OTxg/XNO8LS6haTaUj37S2t610ptii7Y9rsQVON2fXJI+lAHdVzfjL/jz0n/sMWf/AKNWukrm/GX/AB56T/2GLP8A9GrQB0lFFFABRRRQAUUUUAFFFFABRRnnFc/4ju7qa4tdD0+c29xdhpJrgdYLdcb2H+0chQexOe1AE174osLW7aygWe+vV+9b2cRkZP8AeP3V/wCBEVX/AOEnuYhvuvDOswRDrJsilx/wGN2b9K8C8Z/F6exlk0DwQV07S7dihuowDJcN3bcfU9+p65rirD4l+NNOu1uIvEmoOwOds8xlQ/VWyKAPsjTdVsdXtvPsLlJkB2tjgqfRgeQfY1crxnwX41Hjazm1mxgjtfFenIGu4I+Ev4B1BHr6H+E47HFevWN7DqNhb3ts26C4jWRD6gjIoAsUUUUAFFFFABXMR/8AI+av/wBg+y/9Dua6euYj/wCR81f/ALB9l/6Hc0ATeA/+Se+HP+wZb/8Aota6Gue8B/8AJPfDn/YMt/8A0WtdDQAUUUUAFFFFABRRRQAUUUUAFFFFABRRRQAUUUUAFFFFABRRRQAUUUUAFFFFABRRRQAUUUUAFFFFABRRRQAUUUUAFc18P/8AkR9O+kn/AKMaulrmvh//AMiPp30k/wDRjUAdLWb4h/5FrVf+vOb/ANANaVZviH/kWtV/685v/QDQAnhv/kVtI/68of8A0AVPbapZX11c2kEweW3O2VNpGPz6/hXC6NewA2aXOpXMGoxW1uthaRTNtlTyQcmMcMCc5YjjHUVm/wBoTtY3H9n6vfSXMlru1HMzMbabzABjP+rbqNoxxzjvQB6ZDpGm20JigsLaOMqUKJEoBUnJGMdM80HSNNN/HfmwtvtkSbI5/KXeq+gbGQK4m83aa99YS6jex6Sl9D588l2++KNkyR5hO5VLAc5GM9q3vB96kulGNr6S4LXEwhaeQs7op468kAUAawtbF91vbiCOWBSq+Uq7oN4PIGOM9enNUPD3haz8OmZ4JZJpZvvO6RpgdcBY1VevPTNYuoXy6Z4j1C6muDb2y3doJ5S21QhRvvHoB9eKpw6nNDarrFxqcq2R1YRlzI3lrDnq2eAD+WKAO3/srTvPkn+w23mykmR/KGWJGDk4544qQw21orXCwIhjj27kj+bYOwxzj2rA0aafWfDWotFczb5J51glLEEDPy4Pp/Sudl1ye88Oy6pdT3EUM08VmA101pGpTh2aTBKKWzyBngc0Ad1aWmmTMNStrW38yf8AeecIgGYkYyTjOccc0kuh6TO0DTaZZyNBnyS0Kny89dvHGa88g1Ivo1imsapc2Vgr3K+dHeyffX/VqZThm4JIz97jrXUXN9qS+Abe6neWO4aOP7RLja6Rk/M/HQ7efagDol0+yVNi2kAXeHwIxjcOh+owOacllaxGIx20S+VuMe1ANmeuPTOa4O4vdGCQwnxDejQdshjuvtrgNMCMIJ87mGM4GTk8c4xXQaMt9F4NM17ezfa5YmkaZ0YsmR8p28kcAHA75oA37idLW2knl3eXGpdtqljgcnAHJrkvFeorqPhrR9Q0oJcCbU7OS3EpaJX/AHq4ySCV/L8KxLDUY/7IdH1KUad9qjW8vYNSe4jClTnErYaMk43AfdyMEU9kdtLtZ1vZ7qxbXrNLJ5XZ8wiVcEMSd3JPzd8d6AOo+1+L/wDoDaOP+4lJ/wDGaPtXi/8A6BGjD/uISf8AxmuhooA577T4v/6BejD/ALf5P/jVH2jxf/0DdGH/AG+yf/G66GigDnvP8X/8+GjD/t7k/wDjdHneL/8Any0Yf9vMn/xFdDRQBz3m+L/+fXRh/wBt5P8A4mjf4v8A+eGjD/trJ/8AE10NFAHhHxBl8cL4+0z/AIR3I1s2/wC/XT2ZovL3HZ5ocbeu7Ga6GaXxKmleLZtd+yLrcWgoYfsW7aARKT1/iyFzjjpXqu0BiwAyepxXNeJYm0++t9eWBp7eONra/iRckwMQd+O+0jP0LUAfE1Fej+PvhXqOg3b6lokL6loFx+9gntx5nlqecNj09ehrhLHSdR1K6W1sbG4uZ2OBHFGWb8hQB33wIknT4p2SRlvKkgmWYDoV8skZ/ECvpTwTn/hGI1/gW5uVj/3BPIF/8dAryz4feCbrwDp7z3KLJ4r1dPItLRTu+zRnq7+gHUn2x1Ne0aVp0Wk6Ta6fCSyW8Sxhj1bA5J9yefxoAuUUUUAFFFFABXMR/wDI+av/ANg+y/8AQ7munrmI/wDkfNX/AOwfZf8AodzQBN4D/wCSe+HP+wZb/wDota6Gue8B/wDJPfDn/YMt/wD0WtdDQAUUUUAFFFFABRRRQAUUUUAFFFFABRRRQAUUUUAFFFFABRRRQAUUUUAFFFFABRRRQAUUUUAFFFFABRRRQAUUUUAFc18P/wDkR9O+kn/oxq6Wua+H/wDyI+nfST/0Y1AHS1m+If8AkWtV/wCvOb/0A1pVW1G1N9pl3aBtpnheLPpuUj+tAFTw2o/4RjSGwM/Yoef+ACtPaozhRz1461h+EL1bnw7a2zDy7myQWtxC33o3QbeR7gAj2NbtAFPUdNt9UtTbXDTrGSGJgneFuP8AaQg0lnpNlYRQR20OxYARHliSM9SSepPqeau0UAQXl1a2NrJc3s8MFugy8kzBVUe5PFYn/CTreWZm0mzW9RHkWRGnSMlU6sueCCSPQVP4ms7i5tLSa2tjdtaXUdwbYFQZQp6DdgZ7jJFc5b6brFkJ7hNEc/axcxiCKWMGHzCCpbJAxxzjJz2NAHXx6pbtpL36tG6RR75BA4cKQMkAjg1n33ia2t9Cm1FUh2qVVVubiOJSWAIyxJC9eh59qLPR5bPwUNOWM/ajabHBbJaQrg8/WuUvPD+rWltDen7TCLacuy2rweYytCqZHm5TrkHOD6UAd9Ff2klujyyQxkwidkaRTtX14OMe/SrSssiBlIZGGQRyCK8/Oh6zp9hDBa6bLcmbTXtSWuIyYXL7hvPygjn+Ede2Oa7qxiaHT7aJxh0iVWHoQBQBNsXaF2jA7Yp1FFACbFClQowe2K5zxiALLSABgf2xZ/8Ao1a6SuZ8Ruuoavo+jQfPOt3HezY/5ZRxHdlvTLAKPrQB01FFFABRRRQAUUUUAFFFFABR1GDRRQBzz+F/scrzaFqEull2LPbqgkt2Y9T5Z+6T/skU0aV4nk+SXX7KJD1e007ZJ+buw/SujooAy9K0Cy0h5ZohJNeTACa7nbfLJjoC3p7DAHpWpRRQAUUUUAFFFFABXMR/8j5q/wD2D7L/ANDua6euYj/5HzV/+wfZf+h3NAE3gP8A5J74c/7Blv8A+i1roa57wH/yT3w5/wBgy3/9FrXQ0AFFFFABRRRQAUUUUAFFFFABRRRQAUUUUAFFFFABRRRQAUUUUAFFFFABRRRQAUUUUAFFFFABRRRQAUUUUAFFFFABXNfD/wD5EfTvpJ/6Maulrmvh/wD8iPp30k/9GNQB0tFFFAGPqXhy1v7wX0U1zY3wXabm0k2Mw7BgcqwHbcDiq3/COap/0N+sf9+rX/4zXQ0UAc9/wjuqf9DfrH/fq1/+M0f8I7qn/Q36x/36tf8A4zXQ0UAc9/wjuqf9DfrH/fq1/wDjNH/CO6p/0N+sf9+rX/4zXQ0UAc9/wjuqf9DfrH/fq1/+M0n/AAjmqf8AQ36x/wB+rX/4zXRUUAc9/wAI7qn/AEN+sf8Afq1/+M0f8I7qn/Q36x/36tf/AIzXQ0UAc9/wjuqf9DfrH/fq1/8AjNH/AAjuqf8AQ36x/wB+rX/4zXQ0UAc7/wAI5qR4fxdrLL3Gy2GfxEWa0tK0Wy0aOQWqO0kp3SzyuXklPqzHk/yHatCigAooooAKKKKACiiigAooooAKKKKACiiigAooooAKKKKACiiigArmI/8AkfNX/wCwfZf+h3NdPXMR/wDI+av/ANg+y/8AQ7mgDN8JeJLXTPB2iWF3Y6zHc21jDDKn9kXJ2uqAEZEeDyK2P+Ey0z/n11n/AME91/8AG6KKAD/hMtM/59dZ/wDBPdf/ABuj/hMtM/59dZ/8E91/8boooAP+Ey0z/n11n/wT3X/xuj/hMtM/59dZ/wDBPdf/ABuiigA/4TLTP+fXWf8AwT3X/wAbo/4TLTP+fXWf/BPdf/G6KKAD/hMtM/59dZ/8E91/8bo/4TLTP+fXWf8AwT3X/wAboooAP+Ey0z/n11n/AME91/8AG6P+Ey0z/n11n/wT3X/xuiigA/4TLTP+fXWf/BPdf/G6P+Ey0z/n11n/AME91/8AG6KKAD/hMtM/59dZ/wDBPdf/ABuj/hMtM/59dZ/8E91/8boooAP+Ey0z/n11n/wT3X/xuj/hMtM/59dZ/wDBPdf/ABuiigA/4TLTP+fXWf8AwT3X/wAbo/4TLTP+fXWf/BPdf/G6KKAD/hMtM/59dZ/8E91/8bo/4TLTP+fXWf8AwT3X/wAboooAP+Ey0z/n11n/AME91/8AG6P+Ey0z/n11n/wT3X/xuiigA/4TLTP+fXWf/BPdf/G6P+Ey0z/n11n/AME91/8AG6KKAD/hMtM/59dZ/wDBPdf/ABuj/hMtM/59dZ/8E91/8boooAP+Ey0z/n11n/wT3X/xuj/hMtM/59dZ/wDBPdf/ABuiigA/4TLTP+fXWf8AwT3X/wAbo/4TLTP+fXWf/BPdf/G6KKAD/hMtM/59dZ/8E91/8bo/4TLTP+fXWf8AwT3X/wAboooAP+Ey0z/n11n/AME91/8AG6xPB/iK20vwtZWV5YazFcR796f2TcnGXYjkR46EUUUAbf8AwmWmf8+us/8Agnuv/jdH/CZaZ/z66z/4J7r/AON0UUAH/CZaZ/z66z/4J7r/AON0f8Jlpn/PrrP/AIJ7r/43RRQAf8Jlpn/PrrP/AIJ7r/43R/wmWmf8+us/+Ce6/wDjdFFAB/wmWmf8+us/+Ce6/wDjdH/CZaZ/z66z/wCCe6/+N0UUAH/CZaZ/z66z/wCCe6/+N0f8Jlpn/PrrP/gnuv8A43RRQAf8Jlpn/PrrP/gnuv8A43R/wmWmf8+us/8Agnuv/jdFFAB/wmWmf8+us/8Agnuv/jdH/CZaZ/z66z/4J7r/AON0UUAH/CZaZ/z66z/4J7r/AON0f8Jlpn/PrrP/AIJ7r/43RRQAf8Jlpn/PrrP/AIJ7r/43R/wmWmf8+us/+Ce6/wDjdFFAB/wmWmf8+us/+Ce6/wDjdH/CZaZ/z66z/wCCe6/+N0UUAH/CZaZ/z66z/wCCe6/+N0f8Jlpn/PrrP/gnuv8A43RRQAf8Jlpn/PrrP/gnuv8A43R/wmWmf8+us/8Agnuv/jdFFAB/wmWmf8+us/8Agnuv/jdH/CZaZ/z66z/4J7r/AON0UUAH/CZaZ/z66z/4J7r/AON0f8Jlpn/PrrP/AIJ7r/43RRQAf8Jlpn/PrrP/AIJ7r/43R/wmWmf8+us/+Ce6/wDjdFFAB/wmWmf8+us/+Ce6/wDjdH/CZaZ/z66z/wCCe6/+N0UUAH/CZaZ/z66z/wCCe6/+N0f8Jlpn/PrrP/gnuv8A43RRQAf8Jlpn/PrrP/gnuv8A43VPSbn+1fFmrX0Frex2zWdpEr3NpJBuZWnLAB1BOAy9PWiigD//2Q==;strokeColor=none;strokeWidth=102;spacingTop=-3;spacingBottom=-3;spacingLeft=-3;spacingRight=-3;rounded=0;html=1;whiteSpace=wrap;" parent="1" vertex="1">
          <mxGeometry width="606" height="668" as="geometry" />
        </mxCell>
      </root>
    </mxGraphModel>
  </diagram>
</mxfile>
